<?xml version="1.0" encoding="UTF-8" standalone="no"?>
<!-- Created with Inkscape (http://www.inkscape.org/) -->

<svg
   xmlns:dc="http://purl.org/dc/elements/1.1/"
   xmlns:cc="http://creativecommons.org/ns#"
   xmlns:rdf="http://www.w3.org/1999/02/22-rdf-syntax-ns#"
   xmlns:svg="http://www.w3.org/2000/svg"
   xmlns="http://www.w3.org/2000/svg"
   xmlns:sodipodi="http://sodipodi.sourceforge.net/DTD/sodipodi-0.dtd"
   xmlns:inkscape="http://www.inkscape.org/namespaces/inkscape"
   width="11in"
   height="8.5in"
   viewBox="0 0 990 765"
   id="svg2"
   version="1.1"
   inkscape:version="0.91 r13725"
   sodipodi:docname="logo.svg">
  <defs
     id="defs4" />
  <sodipodi:namedview
     id="base"
     pagecolor="#ffffff"
     bordercolor="#666666"
     borderopacity="1.0"
     inkscape:pageopacity="0.0"
     inkscape:pageshadow="2"
     inkscape:zoom="0.5"
     inkscape:cx="789.22327"
     inkscape:cy="150.56336"
     inkscape:document-units="px"
     inkscape:current-layer="layer2"
     showgrid="false"
     units="in"
     inkscape:window-width="1680"
     inkscape:window-height="1001"
     inkscape:window-x="0"
     inkscape:window-y="0"
     inkscape:window-maximized="1" />
  <metadata
     id="metadata7">
    <rdf:RDF>
      <cc:Work
         rdf:about="">
        <dc:format>image/svg+xml</dc:format>
        <dc:type
           rdf:resource="http://purl.org/dc/dcmitype/StillImage" />
        <dc:title></dc:title>
      </cc:Work>
    </rdf:RDF>
  </metadata>
  <g
     inkscape:groupmode="layer"
     id="layer3"
     inkscape:label="Bottom Leaves"
     style="display:inline">
    <path
       style="display:inline;fill:#00d000;fill-opacity:1;fill-rule:evenodd;stroke:#00d000;stroke-width:0.63467073px;stroke-linecap:butt;stroke-linejoin:miter;stroke-opacity:1"
       d="m 435.43378,172.65161 c 0,0 -19.13805,-18.62858 -22.37864,-29.93386 -4.84459,-16.90105 -4.08002,-52.587011 -4.08002,-52.587011 l -32.64021,9.973401 c 0,0 -13.42941,9.12294 -20.40014,7.25338 -9.00784,-2.41592 -18.13344,-21.306806 -18.13344,-21.306806 0,0 -13.33329,10.745363 -21.30681,10.880072 -5.33972,0.09021 -14.50676,-6.800047 -14.50676,-6.800047 0,0 -7.85721,7.852839 -12.69342,7.25338 -5.40912,-0.670473 -11.78673,-11.333405 -11.78673,-11.333405 0,0 -8.03594,3.474537 -12.24009,3.173354 -12.09287,-0.866326 -33.54688,-14.053426 -33.54688,-14.053426 0,0 -8.2145,14.373769 -14.96009,18.58679 -5.78321,3.611956 -13.15462,5.131751 -19.9468,4.533364 -10.45608,-0.921167 -29.01352,-12.240082 -29.01352,-12.240082 0,0 -3.29431,11.532615 -8.16005,13.600087 -3.71106,1.576849 -11.78675,-2.720015 -11.78675,-2.720015 0,0 -8.24364,6.767554 -13.14675,8.613394 -11.14011,4.19383 -35.360224,4.98669 -35.360224,4.98669 0,0 4.347724,42.2558 4.986694,63.46708 0.2503,8.30877 1.58397,16.87448 -0.45333,24.9335 -3.71041,14.6774 -20.853469,40.34692 -20.853469,40.34692 0,0 9.815997,5.76813 12.693415,10.42674 1.791552,2.90056 2.266681,9.97339 2.266681,9.97339 0,0 10.772373,10.03007 12.693413,16.77344 1.78795,6.27617 -1.81334,19.49346 -1.81334,19.49346 0,0 11.33795,1.05591 13.14675,5.44004 4.18505,10.14364 -12.69342,30.37353 -12.69342,30.37353 0,0 20.73643,10.69949 30.37353,17.22678 9.61353,6.51131 21.33838,11.73734 27.20018,21.76013 8.96736,15.33283 8.61339,52.58701 8.61339,52.58701 0,0 29.18712,-13.98601 44.88029,-17.22678 7.25752,-1.49873 15.08833,-2.94383 22.21348,-0.90667 8.26112,2.36195 21.30679,14.50676 21.30679,14.50676 l 2.41702,-4.88288 27.51227,-25.29642 c 0,0 16.94981,-10.64296 23.5644,-17.87435 4.95156,-5.41329 6.41086,-13.59462 11.78674,-18.58678 5.39977,-5.01435 12.14649,-9.85809 19.49345,-10.42673 9.57738,-0.74128 18.29739,5.91231 27.20018,9.52006 10.33905,4.18978 20.87063,8.21006 30.37353,14.05342 10.99664,6.76186 21.36361,14.78181 30.37353,24.02682 2.10935,2.1644 4.58379,4.35497 5.44004,7.25338 0.92201,3.12104 -0.85717,9.63 -0.85717,9.63 l 30.67651,18.83453 c 0,0 18.14639,5.68466 26.39435,10.52239 8.61168,5.05106 15.45344,12.64515 23.12015,19.04012 8.81082,7.34931 17.94107,14.3471 26.2935,22.21348 9.72598,9.15999 19.43055,18.48342 27.65351,29.01352 3.30268,4.22932 7.81596,8.2936 8.61339,13.60009 1.02417,6.81525 -2.71335,13.61736 -5.44003,19.94679 -4.4808,10.40124 -11.86216,19.29677 -17.68011,29.01352 -3.06213,5.11411 -6.22109,10.17573 -9.06673,15.41342 -2.58096,4.75051 -4.42301,9.90055 -7.25338,14.5068 -3.05373,4.96978 -10.42673,14.05338 -10.42673,14.05338 0,0 17.31836,1.3945 22.66681,7.2534 2.81786,3.08679 2.72002,12.24007 2.72002,12.24007 0,0 9.49341,6.38885 11.78674,11.33344 7.00805,15.10986 3.17335,49.86697 3.17335,49.86697 0,0 21.90869,-9.68939 32.64021,-6.80005 7.64633,2.05868 17.68011,15.86677 17.68011,15.86677 0,0 9.04648,-12.33407 15.86677,-13.14676 7.51602,-0.89558 13.87192,6.1426 20.40014,9.97341 7.77295,4.56125 22.21347,15.41342 22.21347,15.41342 0,0 7.48244,-14.44746 14.50676,-15.86677 10.27266,-2.07563 28.56019,13.14676 28.56019,13.14676 0,0 6.87434,-16.71424 14.50676,-19.04012 7.17669,-2.18701 21.30679,7.2534 21.30679,7.2534 0,0 5.34952,-6.75227 8.61337,-9.52007 3.83627,-3.25332 7.86726,-6.74261 12.69342,-8.16008 9.42422,-2.76793 29.46687,0 29.46687,0 0,0 -4.27533,-22.13497 -2.72001,-33.09351 0.95436,-6.72428 2.86465,-13.85696 7.2534,-19.04013 4.63907,-5.47879 18.58678,-10.88009 18.58678,-10.88009 0,0 -6.03229,-6.86879 -5.44002,-10.88004 0.54652,-3.70121 7.70668,-8.16009 7.70668,-8.16009 0,0 -12.02847,-9.40448 -11.33338,-15.86677 0.69789,-6.48843 14.50674,-13.14676 14.50674,-13.14676 0,0 -16.0891,-17.15343 -17.68009,-28.10683 -0.5639,-3.88236 1.23139,-7.92466 3.17335,-11.3334 4.65576,-8.17229 19.49347,-20.40014 19.49347,-20.40014 0,0 -29.9899,-20.96241 -44.42695,-32.18687 -3.72698,-2.89765 -9.67264,-4.50285 -10.8801,-9.06673 -0.66044,-2.49631 2.72001,-7.25338 2.72001,-7.25338 0,0 -4.13272,-6.35596 -4.98667,-9.97339 -3.26354,-13.82456 0,-42.61361 0,-42.61361 0,0 -12.77554,8.44399 -19.94681,10.88007 -7.38643,2.50917 -15.34279,3.02041 -23.12015,3.62669 -4.369,0.34058 -9.06978,1.60699 -13.14676,0 -2.88456,-1.13699 -6.80004,-6.34671 -6.80004,-6.34671 0,0 -13.21443,3.31374 -19.49346,5.89338 -8.37839,3.44212 -16.23253,8.0788 -24.02682,12.69341 -7.32112,4.33448 -14.09263,9.54319 -21.3068,14.05342 -7.29565,4.56116 -13.80533,11.32093 -22.21348,13.14676 -4.15844,0.903 -8.56734,-0.31906 -12.69342,-1.36002 -7.75455,-1.95637 -14.87157,-5.89544 -22.21347,-9.06672 -8.69104,-3.75402 -17.7599,-6.85358 -25.84016,-11.78674 -6.24432,-3.81228 -11.16273,-9.50713 -17.22678,-13.60009 -5.04906,-3.40788 -11.15929,-5.20069 -15.86677,-9.06673 -8.19531,-6.73043 -15.75324,-14.72901 -20.85348,-24.02682 -3.0715,-5.5994 -5.45488,-18.10437 -5.45488,-18.10437 l -26.04007,-17.57988 -10.21198,-1.03598 -59.38705,-41.2536 -11.78674,-14.05343 -16.3201,-17.22678 0.90667,-4.53335 4.08002,-10.88008 8.16006,-10.88007 4.83631,-11.77702 22.28861,-76.28287"
       id="path3401"
       inkscape:connector-curvature="0"
       sodipodi:nodetypes="csccscscscscsscscscsscscscscsscsscccsssssssccssssssssscscscscsscscscsscsscscscsscsscscssscssssssssssccccccccccc" />
  </g>
  <g
     inkscape:label="Top Leaves"
     inkscape:groupmode="layer"
     id="layer1"
     transform="translate(0,-287.3622)"
     style="display:inline">
    <path
       style="fill:#008000;fill-rule:evenodd;stroke:#008000;stroke-width:0.63467073px;stroke-linecap:butt;stroke-linejoin:miter;stroke-opacity:1"
       d="m 267.52965,703.44626 c 0,0 0.85323,5.4207 0.91123,8.15551 0.0932,4.39166 0.95065,9.16606 -0.90667,13.14674 -2.39496,5.13295 -12.24008,11.78675 -12.24008,11.78675 l -2.26668,7.25338 c 0,0 6.35182,8.6807 5.89337,13.60008 -0.57559,6.17621 -7.80278,9.34347 -10.42674,15.41344 2.32192,4.95978 4.01824,10.06072 2.72002,14.9601 -1.56602,5.91001 -11.78674,14.05342 -11.78674,14.05342 0,0 11.5476,8.93352 15.41343,14.96009 4.15468,6.47685 6.40344,14.17646 7.70672,21.76015 0.92138,5.36145 0,16.32012 0,16.32012 0,0 4.65492,6.58839 4.9867,10.42669 0.77042,8.91306 -7.25338,25.84017 -7.25338,25.84017 0,0 8.36188,5.8952 9.97339,10.42675 2.53971,7.14157 -1.81334,22.66683 -1.81334,22.66683 0,0 2.34919,14.80179 4.9867,21.76013 2.6844,7.08203 10.88007,19.94681 10.88007,19.94681 0,0 19.35228,-9.4182 28.56018,-14.96014 5.49449,-3.30695 15.86677,-10.88004 15.86677,-10.88004 l 22.66682,-0.45334 c 0,0 7.46682,-8.94664 12.69341,-10.8801 4.67695,-1.73011 10.21783,1.54206 14.9601,0 1.95459,-0.63562 4.9867,-3.62663 4.9867,-3.62663 l 13.60008,7.70668 c 0,0 5.49422,-12.16652 10.88007,-15.41343 7.04682,-4.24829 24.48016,-3.17335 24.48016,-3.17335 0,0 3.10264,-8.43592 5.44003,-12.24007 2.75522,-4.48414 5.93824,-8.86127 9.9734,-12.24007 2.38569,-1.99763 5.05053,-4.64681 8.16005,-4.53339 5.23556,0.19091 13.14676,8.61337 13.14676,8.61337 0,0 3.16896,-23.82084 10.42673,-32.64017 2.19175,-2.66333 5.63677,-4.62287 9.06672,-4.98673 1.56886,-0.16641 4.53337,1.36004 4.53337,1.36004 0,0 8.15457,-12.34264 14.50676,-15.41343 6.41741,-3.10232 21.3068,-1.81338 21.3068,-1.81338 l 4.53337,-13.14673 c 0,0 -4.01317,-10.67034 -6.34671,-15.86677 -1.79948,-4.00716 -4.58362,-7.5939 -5.89337,-11.78675 -2.2302,-7.13944 -1.64684,-14.89123 -3.17335,-22.21347 -0.92778,-4.45026 -3.6267,-13.14675 -3.6267,-13.14675 0,0 -14.65206,-8.74955 -22.21347,-12.69342 -8.45047,-4.40757 -17.08649,-8.47045 -25.84017,-12.24008 -2.68048,-1.15431 -8.16005,-3.17335 -8.16005,-3.17335 0,0 -2.09965,-4.90728 -1.36001,-7.25338 2.98806,-9.47798 21.3068,-20.85347 21.3068,-20.85347 0,0 8.53207,-6.86672 13.60009,-6.80004 2.56868,0.0338 6.80004,3.62669 6.80004,3.62669 0,0 7.70254,-5.89704 10.88008,-9.52006 2.87403,-3.27697 7.25337,-10.88007 7.25337,-10.88007 0,0 -0.41443,-12.52615 0.90668,-18.58679 2.42641,-11.1313 12.69341,-31.73354 12.69341,-31.73354 0,0 6.31896,-12.8775 9.9734,-19.04012 1.66743,-2.81183 2.18247,-7.88626 5.44004,-8.16005 10.75891,-0.90426 16.67422,14.30587 22.21347,23.57348 1.22581,2.05088 2.26668,6.80005 2.26668,6.80005 0,0 13.05105,13.50484 20.85347,18.58678 4.58994,2.98956 14.9601,6.80005 14.9601,6.80005 0,0 -1.85839,-9.47654 0.90667,-12.69342 3.13042,-3.64194 9.72578,-1.09134 14.05342,-3.17335 3.48773,-1.67794 5.42729,-5.93653 9.06673,-7.25338 7.24831,-2.62264 23.12015,-0.45334 23.12015,-0.45334 l 9.9734,-7.25338 c 0,0 -5.27133,-6.51018 -5.44004,-10.42673 -0.25362,-5.88791 6.80004,-16.32011 6.80004,-16.32011 0,0 -2.88307,-7.83361 -2.26668,-11.78674 0.58341,-3.74165 2.95555,-7.11549 5.44004,-9.9734 4.32262,-4.97232 15.86676,-11.78674 15.86676,-11.78674 0,0 -3.95313,-7.95739 -4.98669,-12.24008 -0.81845,-3.39133 -1.50665,-6.99002 -0.90667,-10.42674 0.74417,-4.26272 5.44003,-11.78673 5.44003,-11.78673 0,0 -6.49119,-4.28312 -7.70672,-7.70672 -1.47403,-4.15173 -0.0501,-8.9729 1.36001,-13.14676 2.04066,-6.04001 9.9734,-16.3201 9.9734,-16.3201 0,0 -8.43266,-1.57338 -9.52006,-4.9867 -2.6258,-8.24227 11.78674,-23.12015 11.78674,-23.12015 0,0 -7.47991,-7.7418 -9.06672,-12.69341 -0.92232,-2.87807 0,-9.06673 0,-9.06673 0,0 -4.72521,1.13327 -5.89338,-0.45334 -3.21667,-4.36888 3.6267,-15.86676 3.6267,-15.86676 0,0 -6.78795,-4.65154 -8.61339,-8.16005 -1.90372,-3.65895 -2.46348,-8.16709 -1.81335,-12.24009 0.63914,-4.00407 5.44004,-10.88006 5.44004,-10.88006 0,0 -7.95838,-7.704 -9.9734,-12.69342 -2.78719,-6.90137 -2.26668,-22.21347 -2.26668,-22.21347 0,0 -0.93046,-15.41208 -1.36001,-23.12015 -0.31995,-5.7413 -0.69166,-11.48059 -0.90668,-17.22678 -0.25433,-6.79697 -0.71666,-13.60351 -0.45333,-20.40014 0.11759,-3.03504 0.90667,-9.06672 0.90667,-9.06672 0,0 -4.97062,-0.35758 -7.25338,0.45333 -1.22492,0.43514 -2.149,1.46638 -3.17335,2.26669 -5.32133,4.15747 -9.87206,9.28743 -15.41344,13.14675 -3.55304,2.47454 -7.92109,3.68146 -11.3334,6.34671 -2.78019,2.17152 -4.37008,5.67408 -7.25338,7.70671 -2.15695,1.52058 -7.25338,3.17335 -7.25338,3.17335 0,0 -7.96533,9.9061 -13.60009,12.24009 -2.65624,1.10025 -8.61339,0.45333 -8.61339,0.45333 0,0 -2.60555,4.91754 -4.9867,5.89337 -3.08885,1.26587 -9.97339,-0.90667 -9.97339,-0.90667 0,0 -4.3873,9.81486 -8.61339,12.69342 -5.12059,3.48783 -18.13345,4.08002 -18.13345,4.08002 0,0 -4.93628,10.50002 -9.52006,13.60009 -3.85605,2.6079 -9.15546,4.55737 -13.60009,3.17335 -2.14487,-0.66789 -4.53337,-4.98669 -4.53337,-4.98669 l -11.3334,6.3467 c 0,0 -3.48155,8.2277 -5.44004,12.24008 -1.12684,2.30858 -1.55563,5.28018 -3.62669,6.80005 -3.96639,2.91079 -14.50676,2.72001 -14.50676,2.72001 0,0 1.24374,6.02564 0,8.61339 -1.67659,3.48837 -5.71188,5.32344 -9.06672,7.25338 -4.35413,2.50481 -9.06071,4.88749 -14.05343,5.44004 -3.0375,0.33616 -9.06672,-1.36001 -9.06672,-1.36001 0,0 3.05423,16.98003 0.90667,22.66681 -2.14756,5.68678 -6.12815,7.54282 -9.52006,9.9734 -3.39191,2.43059 -10.17202,4.70885 -10.17202,4.70885 0,0 -1.66763,12.19315 -5.69475,16.14462 -4.57105,4.48518 -18.13345,6.34671 -18.13345,6.34671 0,0 3.18512,16.73111 5.44004,24.93349 1.52003,5.52917 6.46824,10.67874 5.44003,16.3201 -0.55859,3.06477 -5.89337,7.25338 -5.89337,7.25338 0,0 5.81161,5.78877 5.89337,9.52007 0.0949,4.32879 -6.3467,11.3334 -6.3467,11.3334 0,0 21.49361,13.26885 33.09354,18.13345 9.16989,3.84553 18.74951,6.99297 28.56018,8.61339 8.65248,1.42912 26.2935,0.90667 26.2935,0.90667 0,0 3.30845,6.4503 3.6267,9.9734 0.64814,7.17521 -2.66903,14.16632 -3.6267,21.30681 -1.23121,9.18012 -0.10226,18.7688 -2.72001,27.6535 -1.68087,5.70491 -8.16005,15.86677 -8.16005,15.86677 0,0 -8.30878,14.81368 -14.50677,20.40014 -5.93102,5.34583 -20.85346,11.78674 -20.85346,11.78674 0,0 -14.45102,9.74319 -22.66681,12.24008 -3.04997,0.92692 -9.52006,0.90667 -9.52006,0.90667 l -20.85347,-14.05342 c 0,0 -15.0164,-13.12771 -23.57349,-18.13345 -8.64904,-5.05954 -17.87194,-9.61285 -27.65351,-11.78675 -4.28041,-0.9513 -8.8771,-1.45185 -13.14675,-0.45333 -4.34505,1.01615 -7.83678,4.27071 -11.78675,6.34671 -5.86271,3.08129 -12.1195,5.46875 -17.68011,9.06672 -2.43709,1.57691 -3.92652,5.02904 -6.80004,5.44004 -2.75018,0.39335 -12.19452,-4.74408 -12.19452,-4.74408 0,0 -5.87881,11.19843 -10.74225,14.93275 -4.77662,3.66766 -16.89303,6.40594 -16.89303,6.40594 l 9.00294,8.79222"
       id="path3409"
       inkscape:connector-curvature="0"
       sodipodi:nodetypes="cssccscscsscscscscsccssccscssscsscsccssscsscscscscscssscscsssccscsscsscsscscscscsscscssscssssscscscscssccsscsssczzcscsscscsscssscscsccsssssscscc" />
  </g>
  <g
     inkscape:groupmode="layer"
     id="layer2"
     inkscape:label="veins"
     style="display:inline">
    <path
       id="path3431"
       style="fill:none;fill-rule:evenodd;stroke:#000000;stroke-width:1.90401232;stroke-linecap:butt;stroke-linejoin:miter;stroke-miterlimit:4;stroke-dasharray:none;stroke-opacity:1"
       d="m 619.36619,501.49489 c 0,0 -7.41225,9.08944 -5.30175,35.8974 1.35331,17.19 7.02853,30.10504 12.69342,44.42695 6.12504,15.48527 12.61084,31.2927 22.84814,44.42696 8.66215,11.11334 31.73354,27.92551 31.73354,27.92551 m -61.8804,-152.63832 c 0,0 7.11957,-5.52879 33.95489,-7.29871 17.7222,-1.16887 35.63015,4.63726 52.043,11.42407 21.80176,9.01516 41.41804,23.11846 59.65905,38.08025 11.33732,9.2992 30.4642,31.73354 30.4642,31.73354 M 534.09593,433.30629 c 0,0 36.54278,28.57786 54.58168,43.15761 9.81709,7.93456 19.41223,16.14047 29.19486,24.11749 17.25838,14.07296 35.7647,26.69231 52.043,41.88827 16.85287,15.73234 30.85252,34.28447 46.96563,50.77366 13.17513,13.48263 40.61893,39.34959 40.61893,39.34959"
       inkscape:connector-curvature="0" />
    <path
       id="path3419"
       style="fill:none;fill-rule:evenodd;stroke:#000000;stroke-width:1.90401232;stroke-linecap:butt;stroke-linejoin:miter;stroke-miterlimit:4;stroke-dasharray:none;stroke-opacity:1"
       d="m 425.29773,448.3206 c 0,0 24.91831,19.09003 28.82968,33.22067 3.89701,14.07876 -2.68989,29.40511 -7.61605,43.15761 -9.00822,25.1485 -39.34959,69.81378 -39.34959,69.81378 M 425.22734,448.314 c 0,0 -23.42776,-9.56945 -35.83635,-11.19969 -10.07694,-1.32391 -20.75496,-1.73537 -30.46419,1.26934 -15.2529,4.7203 -28.89773,14.545 -40.61893,25.38683 -8.8837,8.21721 -15.63367,18.65455 -21.57881,29.19486 -7.64317,13.5508 -14.75159,27.89568 -17.77078,43.15761 -2.38123,12.03703 0,36.8109 0,36.8109 m 181.51584,-161.20637 -30.4642,31.73354 c 0,0 -38.27297,34.07228 -53.31234,54.58168 -15.8954,21.67678 -25.11941,47.53398 -38.08025,71.08313 -10.77991,19.58651 -33.00288,58.38971 -33.00288,58.38971"
       inkscape:connector-curvature="0" />
    <path
       id="path3425"
       style="fill:none;fill-rule:evenodd;stroke:#000000;stroke-width:1.90401232;stroke-linecap:butt;stroke-linejoin:miter;stroke-miterlimit:4;stroke-dasharray:none;stroke-opacity:1"
       d="m 649.606,199.74745 c 0,0 -9.18543,26.33911 -16.50144,38.08024 -7.93643,12.73684 -16.83529,25.76017 -29.19485,34.27222 -11.46242,7.8942 -25.73021,11.09606 -39.34959,13.96276 -11.20974,2.35951 -23.45644,6.31286 -34.27222,2.53868 -7.0677,-2.46628 -12.04877,-9.21472 -16.50144,-15.23209 -7.54199,-10.19231 -13.55452,-21.94013 -16.50144,-34.27222 -4.81965,-20.16904 -5.82755,-41.96802 -1.26934,-62.19774 3.74339,-16.61349 22.84815,-45.69629 22.84815,-45.69629 m -1.26934,191.67057 c 0,0 22.9246,-52.43296 34.27222,-78.69918 6.38981,-14.79044 12.49642,-29.70395 19.04012,-44.42695 14.37869,-32.35135 44.42695,-96.46996 44.42695,-96.46996"
       inkscape:connector-curvature="0" />
    <path
       id="path3415"
       style="fill:none;fill-rule:evenodd;stroke:#000000;stroke-width:1.90401232;stroke-linecap:butt;stroke-linejoin:miter;stroke-miterlimit:4;stroke-dasharray:none;stroke-opacity:1"
       d="m 185.02701,118.50959 c 0,0 32.05516,-1.12904 46.96563,3.80803 26.52528,8.78288 51.29691,24.69791 71.08313,44.42695 21.94596,21.88254 40.19431,49.13915 49.50432,78.69917 5.21753,16.56608 12.20489,37.61311 2.53868,52.04301 -11.24654,16.78904 -37.24889,16.63779 -57.12037,20.30946 -17.47993,3.22978 -35.72429,3.84619 -53.31234,1.26934 -18.9318,-2.77373 -37.82273,-8.53801 -54.58169,-17.77078 -19.73922,-10.87465 -36.69186,-26.65799 -52.043,-43.15761 -7.43786,-7.99432 -19.04012,-26.65617 -19.04012,-26.65617 m 6.34671,-82.5072 c 0,0 73.51757,54.69265 111.70205,79.96851 39.27091,25.99501 81.56216,47.2595 120.58744,73.62181 20.54605,13.87924 59.65906,44.42695 59.65906,44.42695"
       inkscape:connector-curvature="0" />
  </g>
</svg>
